<svg width="500" height="400" xmlns="http://www.w3.org/2000/svg">
 <!-- Created with Method Draw - http://github.com/duopixel/Method-Draw/ -->
 <g>
  <title>background</title>
  <rect fill="#4c4c4c" id="canvas_background" height="402" width="502" y="-1" x="-1"/>
  <g display="none" overflow="visible" y="0" x="0" height="100%" width="100%" id="canvasGrid">
   <rect fill="url(#gridpattern)" stroke-width="0" y="0" x="0" height="100%" width="100%"/>
  </g>
 </g>
 <g>
  <title>Layer 1</title>
  <path id="svg_4" d="m89.5,306.5l45.5,-3.5l95,-257l125,258l44,1l-1,23l-314,4c1.83333,-8.5 3.66667,-17 5.5,-25.5z" stroke-opacity="null" stroke-width="1.5" stroke="#000" fill="#ff7f00"/>
  <path id="svg_5" d="m196.5,136.5l78.5,-2.5l-14,-27l-58,1" stroke-opacity="null" stroke-width="1.5" stroke="#000" fill="#ffffff"/>
  <path id="svg_7" d="m173.5,194.5l126.5,-6.5l14,30l-147,-2" stroke-opacity="null" stroke-width="1.5" stroke="#000" fill="#ffffff"/>
  <path id="svg_8" d="m154.5,252.5l177.5,-1.5c0.5,0.5 11.5,31.5 11.5,31.5c0,0 -201,-2 -201.5,-2.5" stroke-opacity="null" stroke-width="1.5" stroke="#000" fill="#ffffff"/>
  <path opacity="0.28" id="svg_10" d="m399.5,314.5c0,0 -12,-10 -12.5,-10.5c0.5,0.5 11.5,1.5 11,1" stroke-opacity="null" stroke-width="0" stroke="#000" fill="#ffffff"/>
  <rect opacity="0.26" transform="rotate(-25 289.5,185.99999999999991) " id="svg_11" height="235" width="12" y="68.5" x="283.5" fill-opacity="null" stroke-opacity="null" stroke-width="0" stroke="#000" fill="#ffffff"/>
 </g>
</svg>